<svg width="20" height="20" viewBox="0 0 20 20" fill="none" xmlns="http://www.w3.org/2000/svg">
<g clip-path="url(#clip0_80_5475)">
<path d="M10 11.6667C11.3807 11.6667 12.5 10.5474 12.5 9.16666C12.5 7.78595 11.3807 6.66666 10 6.66666C8.61929 6.66666 7.5 7.78595 7.5 9.16666C7.5 10.5474 8.61929 11.6667 10 11.6667Z" stroke="#475259" stroke-width="2" stroke-linecap="round" stroke-linejoin="round"/>
<path d="M14.7142 13.8808L11.1784 17.4166C10.8659 17.7288 10.4422 17.9042 10.0005 17.9042C9.55872 17.9042 9.13506 17.7288 8.82254 17.4166L5.28588 13.8808C4.35356 12.9484 3.71866 11.7605 3.46145 10.4673C3.20424 9.17415 3.33629 7.83372 3.84088 6.61557C4.34547 5.39742 5.19996 4.35625 6.29628 3.62372C7.3926 2.89119 8.68152 2.50021 10 2.50021C11.3186 2.50021 12.6075 2.89119 13.7038 3.62372C14.8001 4.35625 15.6546 5.39742 16.1592 6.61557C16.6638 7.83372 16.7958 9.17415 16.5386 10.4673C16.2814 11.7605 15.6465 12.9484 14.7142 13.8808Z" stroke="#475259" stroke-width="2" stroke-linecap="round" stroke-linejoin="round"/>
</g>
<defs>
<clipPath id="clip0_80_5475">
<rect width="20" height="20" rx="3" fill="white"/>
</clipPath>
</defs>
</svg>
