<svg width="106" height="150" viewBox="0 0 106 72" fill="none" xmlns="http://www.w3.org/2000/svg">
<path d="M6.7812 21.7554C6.40765 15.277 12.1545 9.00098 19.4242 9.00098C26.4353 9.00098 32.2683 14.7564 32.2109 22.1603C32.1534 28.6387 26.3204 34.7701 19.3955 34.7123C12.8154 34.6544 6.37892 28.928 6.7812 21.7554ZM19.5391 16.4627C16.4646 16.0289 13.936 19.326 14.0222 21.9289C14.1659 25.2838 16.6657 27.453 19.4242 27.3951C22.6424 27.3373 24.7975 25.1103 24.9699 21.8132C25.1135 19.2971 22.6137 16.1157 19.5391 16.4627Z" fill="#B4E2EA"/>
<path d="M98.1555 21.9578C98.3854 29.0436 92.2363 34.7412 85.3689 34.7122C78.5301 34.6833 72.5247 28.5519 72.7259 21.6397C72.8983 14.9588 78.1279 9.0877 85.3401 9.00094C92.4662 8.91417 98.4429 14.872 98.1555 21.9578ZM90.8571 21.9578C91.2019 19.1524 88.3285 16.3181 85.5987 16.4627C82.4092 16.6362 79.9094 18.8343 79.9381 21.871C79.9381 24.7343 82.6678 27.5397 85.4263 27.4818C88.2135 27.424 91.1731 24.9946 90.8571 21.9578Z" fill="#B4E2EA"/>
<path d="M65.46 13.0147C65.7186 19.6956 59.4546 25.827 52.6733 25.7113C45.9783 25.5956 39.8867 20.0137 40.0016 12.7544C40.0878 5.66863 45.5473 0 52.7595 0C59.6844 0 65.7186 5.84216 65.46 13.0147ZM52.8457 7.46177C49.7137 7.46177 47.1851 9.7755 47.2426 12.7544C47.3288 16.2539 49.7425 18.3074 52.7308 18.3941C55.5755 18.4809 58.1328 15.9647 58.219 12.9858C58.3052 10.325 55.5755 6.99903 52.8457 7.46177Z" fill="#E7FF51"/>
<path d="M105.713 44.6034C105.569 44.1407 105.31 43.7357 104.966 43.4176C104.937 43.4176 104.908 43.3308 104.879 43.3308C104.678 43.1573 104.477 43.0127 104.276 42.8681C101.92 41.046 99.3624 39.5421 96.5178 38.4431C93.2995 37.1995 89.9377 36.621 86.5183 36.3897C84.9667 36.274 83.415 36.5054 81.8634 36.65C77.4958 37.0838 73.5305 38.5299 69.7951 40.7279C69.1917 41.046 68.7894 41.046 68.2147 40.7279C66.9217 39.9759 65.5999 39.224 64.2207 38.6745C61.6921 37.6911 59.1347 37.0259 56.4625 36.621C53.1006 36.1294 49.7674 36.274 46.463 36.9103C42.9574 37.6044 39.6818 38.9058 36.6072 40.7857C36.1187 41.075 35.7452 41.1328 35.228 40.7857C30.4007 37.8357 25.1136 36.4475 18.8783 36.3029C17.6715 36.0715 15.8899 36.5343 14.1372 36.8235C10.0857 37.5176 6.37896 38.9926 3.01708 41.1617C2.18379 41.6823 1.37924 42.2607 0.603416 42.8681C0 43.4755 0 44.1985 0 44.9505C0 47.1196 1.75278 48.8549 3.90783 48.8549C4.33885 48.8549 4.76986 48.797 5.1434 48.6235C5.86175 48.1897 6.35023 47.698 6.98238 47.322C9.1949 45.8759 11.6086 44.8637 14.2234 44.2853C19.2806 43.1573 24.1941 43.6201 28.9352 45.7313C29.711 46.0495 29.826 46.3965 29.28 46.975C28.4755 47.8426 27.8433 48.797 27.1824 49.7225C25.4009 52.1519 24.1079 54.7838 23.7343 57.7916C23.4757 59.9029 24.0217 61.9564 24.855 63.8652C26.7227 68.1167 31.6649 71.5583 37.067 70.951C39.6818 70.6618 42.0092 69.7941 43.9344 68.0877C48.5319 64.0387 49.4513 57.5024 46.3193 52.2387C45.1987 50.3588 44.0206 48.5367 42.5839 46.8593C42.0954 46.2808 42.1529 45.9916 42.9 45.7024C45.17 44.8058 47.44 44.0539 49.8824 43.8225C54.135 43.3887 58.1578 43.996 62.0656 45.7313C62.669 45.9916 62.8414 46.2519 62.3529 46.8593C61.1748 48.3054 60.0542 49.8382 59.0485 51.4578C57.1521 54.3789 56.3763 57.5892 56.9797 61.0019C58.244 68.0877 65.2551 72.4838 72.2087 70.575C77.7831 69.0421 81.1163 64.2701 81.2312 58.6882C81.26 56.3166 80.4841 54.1186 79.2773 52.123C78.2141 50.3009 77.0648 48.5078 75.5993 46.946C74.9959 46.2808 75.1971 45.9916 75.9442 45.7024C77.8119 44.9505 79.7371 44.3431 81.7197 43.996C84.9379 43.4465 88.1274 43.6201 91.2307 44.4299C94.3914 45.2397 97.2648 46.6279 99.7934 48.6235C99.9658 48.7681 100.138 48.9416 100.339 49.0573C100.914 49.4622 101.632 49.6936 102.38 49.6936C102.839 49.6936 103.27 49.6068 103.644 49.4622C103.673 49.4622 103.701 49.4333 103.73 49.4333C104.621 49.0573 105.339 48.3343 105.713 47.4377V47.3799C105.828 47.1485 105.885 46.9171 105.943 46.6858C105.971 46.4544 106 46.2519 106 46.0206C106 45.5289 105.885 45.0372 105.713 44.6034ZM37.4405 63.4603C35.113 64.0966 32.958 63.2578 31.8374 61.2912C30.8317 59.5559 30.8029 57.9073 31.8374 56.1142C32.8143 54.4078 33.8775 52.7304 35.228 51.2554C35.7739 50.648 36.1762 50.648 36.6647 51.2843C38.2451 53.2799 39.9404 55.1598 40.7449 57.647C40.8886 58.0519 40.9461 58.4568 40.9173 58.7461C40.9173 60.8863 39.3369 62.9686 37.4405 63.4603ZM69.6514 63.6049C67.1803 63.9519 65.0539 62.5059 64.3069 60.1054C63.8758 58.8328 64.0195 57.7049 64.5942 56.5769C65.5424 54.6103 66.8642 52.8461 68.3009 51.1975C68.7606 50.6769 69.1629 50.648 69.6227 51.1975C71.0881 52.9617 72.4961 54.726 73.5018 56.8083C73.8178 57.4157 73.7604 58.1098 73.904 58.6882C73.8753 61.2333 72.0938 63.2578 69.6514 63.6049Z" fill="url(#paint0_linear_352_3453)"/>
<defs>
<linearGradient id="paint0_linear_352_3453" x1="0" y1="53.631" x2="106" y2="53.631" gradientUnits="userSpaceOnUse">
<stop stop-color="#DBF1F5"/>
<stop offset="0.2" stop-color="#B4E2EA"/>
<stop offset="0.51" stop-color="#E7FF51"/>
<stop offset="0.855" stop-color="#B4E2EA"/>
</linearGradient>
</defs>
</svg>
